<mxfile host="app.diagrams.net" modified="2023-08-22T00:40:51.782Z" agent="Mozilla/5.0 (X11; Linux x86_64; rv:109.0) Gecko/20100101 Firefox/116.0" etag="tWRrWxQ8Eh0c0xNpT1CA" version="21.6.8" type="github">
  <diagram id="Bi8yQc8i4gSCwa7ISA3M" name="Page-1">
    <mxGraphModel dx="978" dy="556" grid="1" gridSize="10" guides="1" tooltips="1" connect="1" arrows="0" fold="1" page="1" pageScale="1" pageWidth="850" pageHeight="1100" math="0" shadow="0">
      <root>
        <mxCell id="0" />
        <mxCell id="1" parent="0" />
        <mxCell id="HOgNb5vJPWKjZWPz9B7e-17" style="edgeStyle=orthogonalEdgeStyle;rounded=1;orthogonalLoop=1;jettySize=auto;html=1;exitX=0;exitY=0.5;exitDx=0;exitDy=0;entryX=1;entryY=0.5;entryDx=0;entryDy=0;fontSize=14;endArrow=none;endFill=0;strokeWidth=2;" parent="1" source="HOgNb5vJPWKjZWPz9B7e-1" target="HOgNb5vJPWKjZWPz9B7e-3" edge="1">
          <mxGeometry relative="1" as="geometry">
            <mxPoint x="311" y="150" as="sourcePoint" />
          </mxGeometry>
        </mxCell>
        <mxCell id="HOgNb5vJPWKjZWPz9B7e-18" style="edgeStyle=orthogonalEdgeStyle;rounded=1;orthogonalLoop=1;jettySize=auto;html=1;exitX=0;exitY=0.5;exitDx=0;exitDy=0;entryX=1;entryY=0.5;entryDx=0;entryDy=0;fontSize=14;endArrow=none;endFill=0;strokeWidth=2;" parent="1" source="HOgNb5vJPWKjZWPz9B7e-1" target="lwvj8f8YE6O9QnCj63W--41" edge="1">
          <mxGeometry relative="1" as="geometry">
            <mxPoint x="311" y="150" as="sourcePoint" />
            <mxPoint x="250" y="290" as="targetPoint" />
          </mxGeometry>
        </mxCell>
        <mxCell id="HOgNb5vJPWKjZWPz9B7e-20" style="edgeStyle=orthogonalEdgeStyle;rounded=1;orthogonalLoop=1;jettySize=auto;html=1;exitX=0;exitY=0.5;exitDx=0;exitDy=0;entryX=1;entryY=0.5;entryDx=0;entryDy=0;fontSize=14;endArrow=none;endFill=0;strokeWidth=2;" parent="1" source="HOgNb5vJPWKjZWPz9B7e-1" target="HOgNb5vJPWKjZWPz9B7e-5" edge="1">
          <mxGeometry relative="1" as="geometry">
            <mxPoint x="311" y="150" as="sourcePoint" />
          </mxGeometry>
        </mxCell>
        <mxCell id="HOgNb5vJPWKjZWPz9B7e-21" style="edgeStyle=orthogonalEdgeStyle;rounded=1;orthogonalLoop=1;jettySize=auto;html=1;exitX=0;exitY=0.5;exitDx=0;exitDy=0;entryX=1;entryY=0.5;entryDx=0;entryDy=0;fontSize=14;endArrow=none;endFill=0;strokeWidth=2;" parent="1" source="HOgNb5vJPWKjZWPz9B7e-1" target="HOgNb5vJPWKjZWPz9B7e-6" edge="1">
          <mxGeometry relative="1" as="geometry">
            <mxPoint x="311" y="150" as="sourcePoint" />
          </mxGeometry>
        </mxCell>
        <mxCell id="HOgNb5vJPWKjZWPz9B7e-24" style="edgeStyle=orthogonalEdgeStyle;rounded=1;orthogonalLoop=1;jettySize=auto;html=1;exitX=1;exitY=0.5;exitDx=0;exitDy=0;entryX=0;entryY=0.5;entryDx=0;entryDy=0;fontSize=14;endArrow=none;endFill=0;strokeWidth=2;" parent="1" source="HOgNb5vJPWKjZWPz9B7e-1" target="HOgNb5vJPWKjZWPz9B7e-7" edge="1">
          <mxGeometry relative="1" as="geometry" />
        </mxCell>
        <mxCell id="HOgNb5vJPWKjZWPz9B7e-25" style="edgeStyle=orthogonalEdgeStyle;rounded=1;orthogonalLoop=1;jettySize=auto;html=1;exitX=1;exitY=0.5;exitDx=0;exitDy=0;entryX=0;entryY=0.5;entryDx=0;entryDy=0;fontSize=14;endArrow=none;endFill=0;strokeWidth=2;" parent="1" source="HOgNb5vJPWKjZWPz9B7e-1" target="HOgNb5vJPWKjZWPz9B7e-10" edge="1">
          <mxGeometry relative="1" as="geometry" />
        </mxCell>
        <mxCell id="HOgNb5vJPWKjZWPz9B7e-28" style="edgeStyle=orthogonalEdgeStyle;rounded=1;orthogonalLoop=1;jettySize=auto;html=1;exitX=0.5;exitY=1;exitDx=0;exitDy=0;fontSize=14;endArrow=none;endFill=0;strokeWidth=2;" parent="1" source="HOgNb5vJPWKjZWPz9B7e-1" target="HOgNb5vJPWKjZWPz9B7e-27" edge="1">
          <mxGeometry relative="1" as="geometry" />
        </mxCell>
        <mxCell id="lwvj8f8YE6O9QnCj63W--19" style="edgeStyle=orthogonalEdgeStyle;rounded=1;orthogonalLoop=1;jettySize=auto;html=1;exitX=1;exitY=0.5;exitDx=0;exitDy=0;entryX=0;entryY=0.5;entryDx=0;entryDy=0;endArrow=none;endFill=0;strokeWidth=2;" parent="1" source="HOgNb5vJPWKjZWPz9B7e-1" target="HOgNb5vJPWKjZWPz9B7e-9" edge="1">
          <mxGeometry relative="1" as="geometry" />
        </mxCell>
        <mxCell id="lwvj8f8YE6O9QnCj63W--40" style="edgeStyle=orthogonalEdgeStyle;rounded=1;orthogonalLoop=1;jettySize=auto;html=1;exitX=1;exitY=0.5;exitDx=0;exitDy=0;entryX=0;entryY=0.5;entryDx=0;entryDy=0;endArrow=none;endFill=0;strokeWidth=2;" parent="1" source="HOgNb5vJPWKjZWPz9B7e-1" target="lwvj8f8YE6O9QnCj63W--36" edge="1">
          <mxGeometry relative="1" as="geometry" />
        </mxCell>
        <mxCell id="lwvj8f8YE6O9QnCj63W--48" style="edgeStyle=orthogonalEdgeStyle;rounded=1;orthogonalLoop=1;jettySize=auto;html=1;exitX=1;exitY=0.5;exitDx=0;exitDy=0;entryX=0;entryY=0.5;entryDx=0;entryDy=0;endArrow=none;endFill=0;strokeWidth=2;" parent="1" source="HOgNb5vJPWKjZWPz9B7e-1" target="lwvj8f8YE6O9QnCj63W--47" edge="1">
          <mxGeometry relative="1" as="geometry" />
        </mxCell>
        <object label="&lt;font style=&quot;font-size: 14px;&quot;&gt;Learn the Fundamentals&lt;/font&gt;" id="HOgNb5vJPWKjZWPz9B7e-1">
          <mxCell style="rounded=1;whiteSpace=wrap;html=1;fillColor=#fff2cc;strokeColor=#d6b656;strokeWidth=2;fontSize=14;" parent="1" vertex="1">
            <mxGeometry x="320" y="290" width="200" height="40" as="geometry" />
          </mxCell>
        </object>
        <mxCell id="HOgNb5vJPWKjZWPz9B7e-19" style="edgeStyle=orthogonalEdgeStyle;rounded=1;orthogonalLoop=1;jettySize=auto;html=1;entryX=0.5;entryY=0;entryDx=0;entryDy=0;fontSize=14;endArrow=none;endFill=0;strokeWidth=2;" parent="1" target="HOgNb5vJPWKjZWPz9B7e-1" edge="1">
          <mxGeometry relative="1" as="geometry">
            <mxPoint x="420" y="120" as="sourcePoint" />
          </mxGeometry>
        </mxCell>
        <UserObject label="&lt;div style=&quot;font-size: 14px&quot;&gt;&lt;a href=&quot;https://docs.microsoft.com/en-us/dotnet/csharp/tour-of-csharp/tutorials/hello-world&quot;&gt;Basic Syntax&lt;/a&gt;&lt;/div&gt;" link="https://docs.microsoft.com/en-us/dotnet/csharp/tour-of-csharp/tutorials/hello-world" id="HOgNb5vJPWKjZWPz9B7e-3">
          <mxCell style="rounded=1;whiteSpace=wrap;html=1;fillColor=#dae8fc;strokeColor=#6c8ebf;strokeWidth=2;fontSize=14;" parent="1" vertex="1">
            <mxGeometry x="140" y="130" width="100" height="40" as="geometry" />
          </mxCell>
        </UserObject>
        <UserObject label="&lt;div style=&quot;font-size: 14px&quot;&gt;&lt;a href=&quot;https://docs.microsoft.com/en-us/dotnet/csharp/language-reference/statements/selection-statements&quot;&gt;Conditionals&lt;/a&gt;&lt;/div&gt;" link="https://docs.microsoft.com/en-us/dotnet/csharp/language-reference/statements/selection-statements" linkTarget="_blank" id="HOgNb5vJPWKjZWPz9B7e-5">
          <mxCell style="rounded=1;whiteSpace=wrap;html=1;fillColor=#dae8fc;strokeColor=#6c8ebf;strokeWidth=2;fontSize=14;" parent="1" vertex="1">
            <mxGeometry x="140" y="390" width="100" height="40" as="geometry" />
          </mxCell>
        </UserObject>
        <UserObject label="&lt;a href=&quot;https://docs.microsoft.com/en-us/dotnet/csharp/methods&quot;&gt;Methods&lt;/a&gt;" link="https://docs.microsoft.com/en-us/dotnet/csharp/methods" linkTarget="_blank" id="HOgNb5vJPWKjZWPz9B7e-6">
          <mxCell style="rounded=1;whiteSpace=wrap;html=1;fillColor=#dae8fc;strokeColor=#6c8ebf;strokeWidth=2;fontSize=14;" parent="1" vertex="1">
            <mxGeometry x="160" y="440" width="80" height="40" as="geometry" />
          </mxCell>
        </UserObject>
        <UserObject label="&lt;a href=&quot;https://docs.microsoft.com/en-us/dotnet/csharp/fundamentals/types/namespaces&quot;&gt;Namespaces&lt;/a&gt;" link="https://docs.microsoft.com/en-us/dotnet/csharp/fundamentals/types/namespaces" linkTarget="_blank" id="HOgNb5vJPWKjZWPz9B7e-7">
          <mxCell style="rounded=1;whiteSpace=wrap;html=1;fillColor=#dae8fc;strokeColor=#6c8ebf;strokeWidth=2;fontSize=14;" parent="1" vertex="1">
            <mxGeometry x="599" y="340" width="101" height="40" as="geometry" />
          </mxCell>
        </UserObject>
        <UserObject label="&lt;a href=&quot;https://docs.microsoft.com/en-us/dotnet/csharp/language-reference/statements/iteration-statements&quot;&gt;Loops&lt;/a&gt;" link="https://docs.microsoft.com/en-us/dotnet/csharp/language-reference/statements/iteration-statements" linkTarget="_blank" id="HOgNb5vJPWKjZWPz9B7e-9">
          <mxCell style="rounded=1;whiteSpace=wrap;html=1;fillColor=#dae8fc;strokeColor=#6c8ebf;strokeWidth=2;fontSize=14;" parent="1" vertex="1">
            <mxGeometry x="599" y="290" width="61" height="40" as="geometry" />
          </mxCell>
        </UserObject>
        <UserObject label="&lt;div style=&quot;font-size: 14px&quot;&gt;&lt;a href=&quot;https://docs.microsoft.com/en-us/dotnet/csharp/language-reference/tokens/interpolated&quot;&gt;String Interpolation&lt;br style=&quot;font-size: 14px&quot;&gt;&lt;/a&gt;&lt;/div&gt;" link="https://docs.microsoft.com/en-us/dotnet/csharp/language-reference/tokens/interpolated" linkTarget="_blank" id="HOgNb5vJPWKjZWPz9B7e-10">
          <mxCell style="rounded=1;whiteSpace=wrap;html=1;fillColor=#dae8fc;strokeColor=#6c8ebf;strokeWidth=2;fontSize=14;" parent="1" vertex="1">
            <mxGeometry x="599" y="440" width="141" height="40" as="geometry" />
          </mxCell>
        </UserObject>
        <mxCell id="HOgNb5vJPWKjZWPz9B7e-49" style="edgeStyle=orthogonalEdgeStyle;rounded=1;orthogonalLoop=1;jettySize=auto;html=1;exitX=1;exitY=0.5;exitDx=0;exitDy=0;entryX=0;entryY=0.5;entryDx=0;entryDy=0;fontSize=14;endArrow=none;endFill=0;strokeWidth=2;" parent="1" source="HOgNb5vJPWKjZWPz9B7e-27" target="HOgNb5vJPWKjZWPz9B7e-41" edge="1">
          <mxGeometry relative="1" as="geometry" />
        </mxCell>
        <mxCell id="HOgNb5vJPWKjZWPz9B7e-50" style="edgeStyle=orthogonalEdgeStyle;rounded=1;orthogonalLoop=1;jettySize=auto;html=1;exitX=1;exitY=0.5;exitDx=0;exitDy=0;entryX=0;entryY=0.5;entryDx=0;entryDy=0;fontSize=14;endArrow=none;endFill=0;strokeWidth=2;" parent="1" source="HOgNb5vJPWKjZWPz9B7e-27" target="HOgNb5vJPWKjZWPz9B7e-36" edge="1">
          <mxGeometry relative="1" as="geometry" />
        </mxCell>
        <mxCell id="TVtdVuU6rrKW41aySdb2-4" style="edgeStyle=orthogonalEdgeStyle;rounded=1;orthogonalLoop=1;jettySize=auto;html=1;exitX=0.5;exitY=1;exitDx=0;exitDy=0;fontSize=24;endArrow=none;endFill=0;strokeWidth=2;" parent="1" source="HOgNb5vJPWKjZWPz9B7e-27" target="TVtdVuU6rrKW41aySdb2-2" edge="1">
          <mxGeometry relative="1" as="geometry" />
        </mxCell>
        <mxCell id="lwvj8f8YE6O9QnCj63W--28" style="edgeStyle=orthogonalEdgeStyle;rounded=1;orthogonalLoop=1;jettySize=auto;html=1;exitX=0;exitY=0.5;exitDx=0;exitDy=0;entryX=1;entryY=0.5;entryDx=0;entryDy=0;endArrow=none;endFill=0;strokeWidth=2;" parent="1" source="HOgNb5vJPWKjZWPz9B7e-27" target="lwvj8f8YE6O9QnCj63W--2" edge="1">
          <mxGeometry relative="1" as="geometry" />
        </mxCell>
        <mxCell id="lwvj8f8YE6O9QnCj63W--46" style="edgeStyle=orthogonalEdgeStyle;rounded=1;orthogonalLoop=1;jettySize=auto;html=1;exitX=0;exitY=0.5;exitDx=0;exitDy=0;entryX=1;entryY=0.5;entryDx=0;entryDy=0;endArrow=none;endFill=0;strokeWidth=2;" parent="1" source="HOgNb5vJPWKjZWPz9B7e-27" target="HOgNb5vJPWKjZWPz9B7e-31" edge="1">
          <mxGeometry relative="1" as="geometry" />
        </mxCell>
        <mxCell id="HOgNb5vJPWKjZWPz9B7e-27" value="&lt;div style=&quot;font-size: 14px&quot;&gt;&lt;font style=&quot;font-size: 14px&quot;&gt;Object-Oriented Programming&lt;/font&gt;&lt;/div&gt;" style="rounded=1;whiteSpace=wrap;html=1;fillColor=#fff2cc;strokeColor=#d6b656;strokeWidth=2;" parent="1" vertex="1">
          <mxGeometry x="320" y="670" width="200" height="40" as="geometry" />
        </mxCell>
        <UserObject label="Encapsulation" link="https://docs.microsoft.com/en-us/dotnet/csharp/fundamentals/object-oriented/" id="HOgNb5vJPWKjZWPz9B7e-31">
          <mxCell style="swimlane;rounded=1;fontSize=14;strokeWidth=2;" parent="1" vertex="1">
            <mxGeometry x="10" y="540" width="231" height="150" as="geometry" />
          </mxCell>
        </UserObject>
        <UserObject label="&lt;a href=&quot;https://docs.microsoft.com/en-us/dotnet/csharp/fundamentals/types/classes&quot;&gt;Classes&lt;/a&gt;" link="https://docs.microsoft.com/en-us/dotnet/csharp/fundamentals/types/classes" linkTarget="_blank" id="HOgNb5vJPWKjZWPz9B7e-30">
          <mxCell style="rounded=1;whiteSpace=wrap;html=1;fillColor=#dae8fc;strokeColor=#6c8ebf;strokeWidth=2;fontSize=14;" parent="HOgNb5vJPWKjZWPz9B7e-31" vertex="1">
            <mxGeometry x="10" y="40" width="100" height="40" as="geometry" />
          </mxCell>
        </UserObject>
        <UserObject label="&lt;a href=&quot;https://docs.microsoft.com/en-us/dotnet/csharp/language-reference/builtin-types/struct&quot;&gt;Structs&lt;/a&gt;" link="https://docs.microsoft.com/en-us/dotnet/csharp/language-reference/builtin-types/struct" id="HOgNb5vJPWKjZWPz9B7e-34">
          <mxCell style="rounded=1;whiteSpace=wrap;html=1;fillColor=#dae8fc;strokeColor=#6c8ebf;strokeWidth=2;fontSize=14;" parent="HOgNb5vJPWKjZWPz9B7e-31" vertex="1">
            <mxGeometry x="120" y="40" width="100" height="40" as="geometry" />
          </mxCell>
        </UserObject>
        <UserObject label="&lt;a href=&quot;https://docs.microsoft.com/en-us/dotnet/csharp/fundamentals/types/records&quot;&gt;Records&lt;/a&gt;" link="https://docs.microsoft.com/en-us/dotnet/csharp/fundamentals/types/records" linkTarget="_blank" id="HOgNb5vJPWKjZWPz9B7e-35">
          <mxCell style="rounded=1;whiteSpace=wrap;html=1;fillColor=#dae8fc;strokeColor=#6c8ebf;strokeWidth=2;fontSize=14;" parent="HOgNb5vJPWKjZWPz9B7e-31" vertex="1">
            <mxGeometry x="10" y="90" width="100" height="40" as="geometry" />
          </mxCell>
        </UserObject>
        <UserObject label="&lt;div&gt;&lt;a href=&quot;https://learn.microsoft.com/en-us/dotnet/csharp/whats-new/tutorials/primary-constructors#primary-constructors&quot;&gt;Primary&lt;/a&gt;&lt;/div&gt;&lt;div&gt;&lt;a href=&quot;https://learn.microsoft.com/en-us/dotnet/csharp/whats-new/tutorials/primary-constructors#primary-constructors&quot;&gt;Constructors&lt;br&gt;&lt;/a&gt;&lt;/div&gt;" link="https://learn.microsoft.com/en-us/dotnet/csharp/whats-new/tutorials/primary-constructors#primary-constructors" linkTarget="_blank" id="DmDg42elQiaIXwM6oJwE-1">
          <mxCell style="rounded=1;whiteSpace=wrap;html=1;fillColor=#dae8fc;strokeColor=#6c8ebf;strokeWidth=2;fontSize=14;" vertex="1" parent="HOgNb5vJPWKjZWPz9B7e-31">
            <mxGeometry x="120" y="90" width="100" height="40" as="geometry" />
          </mxCell>
        </UserObject>
        <mxCell id="HOgNb5vJPWKjZWPz9B7e-36" value="Inheritance" style="swimlane;rounded=1;fontSize=14;strokeWidth=2;" parent="1" vertex="1">
          <mxGeometry x="599" y="565" width="240" height="100" as="geometry" />
        </mxCell>
        <UserObject label="&lt;a href=&quot;https://docs.microsoft.com/en-us/dotnet/csharp/fundamentals/types/interfaces&quot;&gt;Interfaces&lt;/a&gt;" link="https://docs.microsoft.com/en-us/dotnet/csharp/fundamentals/types/interfaces" linkTarget="_blank" id="HOgNb5vJPWKjZWPz9B7e-37">
          <mxCell style="rounded=1;whiteSpace=wrap;html=1;fillColor=#dae8fc;strokeColor=#6c8ebf;strokeWidth=2;fontSize=14;" parent="HOgNb5vJPWKjZWPz9B7e-36" vertex="1">
            <mxGeometry x="15" y="40" width="100" height="40" as="geometry" />
          </mxCell>
        </UserObject>
        <UserObject label="&lt;a href=&quot;https://docs.microsoft.com/en-us/dotnet/csharp/language-reference/keywords/abstract&quot;&gt;Abstract Classes&lt;/a&gt;" link="https://docs.microsoft.com/en-us/dotnet/csharp/language-reference/keywords/abstract" linkTarget="_blank" id="HOgNb5vJPWKjZWPz9B7e-38">
          <mxCell style="rounded=1;whiteSpace=wrap;html=1;fillColor=#dae8fc;strokeColor=#6c8ebf;strokeWidth=2;fontSize=14;" parent="HOgNb5vJPWKjZWPz9B7e-36" vertex="1">
            <mxGeometry x="125" y="40" width="100" height="40" as="geometry" />
          </mxCell>
        </UserObject>
        <mxCell id="HOgNb5vJPWKjZWPz9B7e-41" value="Polymorphism" style="swimlane;rounded=1;fontSize=14;strokeWidth=2;" parent="1" vertex="1">
          <mxGeometry x="600" y="700" width="240" height="150" as="geometry" />
        </mxCell>
        <UserObject label="&lt;a href=&quot;https://docs.microsoft.com/en-us/dotnet/csharp/language-reference/keywords/virtual&quot;&gt;Virtual&lt;/a&gt;" link="https://docs.microsoft.com/en-us/dotnet/csharp/language-reference/keywords/virtual" linkTarget="_blank" id="HOgNb5vJPWKjZWPz9B7e-43">
          <mxCell style="rounded=1;whiteSpace=wrap;html=1;fillColor=#dae8fc;strokeColor=#6c8ebf;strokeWidth=2;fontSize=14;" parent="HOgNb5vJPWKjZWPz9B7e-41" vertex="1">
            <mxGeometry x="15" y="40" width="100" height="40" as="geometry" />
          </mxCell>
        </UserObject>
        <UserObject label="&lt;a href=&quot;https://docs.microsoft.com/en-us/dotnet/csharp/language-reference/keywords/override&quot;&gt;Override&lt;/a&gt;" link="https://docs.microsoft.com/en-us/dotnet/csharp/language-reference/keywords/override" linkTarget="_blank" id="HOgNb5vJPWKjZWPz9B7e-44">
          <mxCell style="rounded=1;whiteSpace=wrap;html=1;fillColor=#dae8fc;strokeColor=#6c8ebf;strokeWidth=2;fontSize=14;" parent="HOgNb5vJPWKjZWPz9B7e-41" vertex="1">
            <mxGeometry x="125" y="40" width="100" height="40" as="geometry" />
          </mxCell>
        </UserObject>
        <UserObject label="&lt;a href=&quot;https://docs.microsoft.com/en-us/dotnet/csharp/language-reference/keywords/base&quot;&gt;Using Base Classes&lt;/a&gt;" link="https://docs.microsoft.com/en-us/dotnet/csharp/language-reference/keywords/base" linkTarget="_blank" id="HOgNb5vJPWKjZWPz9B7e-42">
          <mxCell style="rounded=1;whiteSpace=wrap;html=1;fillColor=#dae8fc;strokeColor=#6c8ebf;strokeWidth=2;fontSize=14;" parent="HOgNb5vJPWKjZWPz9B7e-41" vertex="1">
            <mxGeometry x="15" y="90" width="100" height="40" as="geometry" />
          </mxCell>
        </UserObject>
        <mxCell id="TVtdVuU6rrKW41aySdb2-7" style="edgeStyle=orthogonalEdgeStyle;rounded=1;orthogonalLoop=1;jettySize=auto;html=1;entryX=1;entryY=0.5;entryDx=0;entryDy=0;fontSize=24;endArrow=none;endFill=0;strokeWidth=2;" parent="1" source="TVtdVuU6rrKW41aySdb2-2" target="TVtdVuU6rrKW41aySdb2-5" edge="1">
          <mxGeometry relative="1" as="geometry">
            <mxPoint x="320.0000000000002" y="1074.37" as="sourcePoint" />
          </mxGeometry>
        </mxCell>
        <mxCell id="TVtdVuU6rrKW41aySdb2-20" style="edgeStyle=orthogonalEdgeStyle;rounded=1;orthogonalLoop=1;jettySize=auto;html=1;entryX=1;entryY=0.5;entryDx=0;entryDy=0;fontSize=24;endArrow=none;endFill=0;strokeWidth=2;" parent="1" source="TVtdVuU6rrKW41aySdb2-2" target="TVtdVuU6rrKW41aySdb2-12" edge="1">
          <mxGeometry relative="1" as="geometry">
            <mxPoint x="320.0000000000002" y="1074.37" as="sourcePoint" />
          </mxGeometry>
        </mxCell>
        <mxCell id="TVtdVuU6rrKW41aySdb2-23" style="edgeStyle=orthogonalEdgeStyle;rounded=1;orthogonalLoop=1;jettySize=auto;html=1;exitX=1;exitY=0.5;exitDx=0;exitDy=0;entryX=0;entryY=0.5;entryDx=0;entryDy=0;fontSize=24;endArrow=none;endFill=0;strokeWidth=2;" parent="1" source="TVtdVuU6rrKW41aySdb2-2" target="TVtdVuU6rrKW41aySdb2-21" edge="1">
          <mxGeometry relative="1" as="geometry" />
        </mxCell>
        <mxCell id="TVtdVuU6rrKW41aySdb2-24" style="edgeStyle=orthogonalEdgeStyle;rounded=1;orthogonalLoop=1;jettySize=auto;html=1;exitX=1;exitY=0.5;exitDx=0;exitDy=0;entryX=0;entryY=0.5;entryDx=0;entryDy=0;fontSize=24;endArrow=none;endFill=0;strokeWidth=2;" parent="1" source="TVtdVuU6rrKW41aySdb2-2" target="TVtdVuU6rrKW41aySdb2-22" edge="1">
          <mxGeometry relative="1" as="geometry" />
        </mxCell>
        <mxCell id="TVtdVuU6rrKW41aySdb2-38" style="edgeStyle=orthogonalEdgeStyle;rounded=1;orthogonalLoop=1;jettySize=auto;html=1;exitX=0.5;exitY=1;exitDx=0;exitDy=0;entryX=0.5;entryY=0;entryDx=0;entryDy=0;fontSize=14;endArrow=none;endFill=0;strokeWidth=2;" parent="1" source="TVtdVuU6rrKW41aySdb2-2" target="lwvj8f8YE6O9QnCj63W--57" edge="1">
          <mxGeometry relative="1" as="geometry">
            <mxPoint x="420" y="1279.9999999999998" as="targetPoint" />
          </mxGeometry>
        </mxCell>
        <mxCell id="lwvj8f8YE6O9QnCj63W--29" style="edgeStyle=orthogonalEdgeStyle;rounded=1;orthogonalLoop=1;jettySize=auto;html=1;exitX=1;exitY=0.5;exitDx=0;exitDy=0;entryX=0;entryY=0.5;entryDx=0;entryDy=0;endArrow=none;endFill=0;strokeWidth=2;" parent="1" source="TVtdVuU6rrKW41aySdb2-2" target="quayTeWEfiAioYH7ORwF-3" edge="1">
          <mxGeometry relative="1" as="geometry" />
        </mxCell>
        <mxCell id="lwvj8f8YE6O9QnCj63W--53" style="edgeStyle=orthogonalEdgeStyle;rounded=1;orthogonalLoop=1;jettySize=auto;html=1;exitX=1;exitY=0.5;exitDx=0;exitDy=0;entryX=0;entryY=0.5;entryDx=0;entryDy=0;endArrow=none;endFill=0;strokeWidth=2;" parent="1" source="TVtdVuU6rrKW41aySdb2-2" target="TVtdVuU6rrKW41aySdb2-3" edge="1">
          <mxGeometry relative="1" as="geometry" />
        </mxCell>
        <mxCell id="lwvj8f8YE6O9QnCj63W--54" style="edgeStyle=orthogonalEdgeStyle;rounded=1;orthogonalLoop=1;jettySize=auto;html=1;entryX=1;entryY=0.5;entryDx=0;entryDy=0;endArrow=none;endFill=0;strokeWidth=2;" parent="1" source="TVtdVuU6rrKW41aySdb2-2" target="TVtdVuU6rrKW41aySdb2-16" edge="1">
          <mxGeometry relative="1" as="geometry">
            <mxPoint x="320.0000000000002" y="1074.37" as="sourcePoint" />
          </mxGeometry>
        </mxCell>
        <mxCell id="TVtdVuU6rrKW41aySdb2-2" value="&lt;font style=&quot;font-size: 14px&quot;&gt;Going Deeper&lt;/font&gt;" style="rounded=1;whiteSpace=wrap;html=1;fillColor=#fff2cc;strokeColor=#d6b656;strokeWidth=3;" parent="1" vertex="1">
          <mxGeometry x="321" y="1107.5" width="200" height="40" as="geometry" />
        </mxCell>
        <UserObject label="&lt;a href=&quot;https://docs.microsoft.com/en-us/dotnet/csharp/linq/&quot;&gt;LINQ&lt;/a&gt;" link="https://docs.microsoft.com/en-us/dotnet/csharp/linq/" linkTarget="_blank" id="TVtdVuU6rrKW41aySdb2-3">
          <mxCell style="rounded=1;whiteSpace=wrap;html=1;fillColor=#dae8fc;strokeColor=#6c8ebf;strokeWidth=2;fontSize=14;" parent="1" vertex="1">
            <mxGeometry x="599" y="930" width="61" height="40" as="geometry" />
          </mxCell>
        </UserObject>
        <UserObject label="&lt;a href=&quot;https://docs.microsoft.com/en-us/dotnet/csharp/programming-guide/classes-and-structs/object-and-collection-initializers&quot;&gt;Object and Collection Initializers&lt;/a&gt;" link="https://docs.microsoft.com/en-us/dotnet/csharp/programming-guide/classes-and-structs/object-and-collection-initializers" linkTarget="_blank" id="TVtdVuU6rrKW41aySdb2-5">
          <mxCell style="rounded=1;whiteSpace=wrap;html=1;fillColor=#dae8fc;strokeColor=#6c8ebf;strokeWidth=2;fontSize=14;" parent="1" vertex="1">
            <mxGeometry x="80" y="976.8699999999999" width="160" height="40" as="geometry" />
          </mxCell>
        </UserObject>
        <mxCell id="TVtdVuU6rrKW41aySdb2-12" value="Lambdas" style="swimlane;rounded=1;fontSize=14;strokeWidth=2;" parent="1" vertex="1">
          <mxGeometry x="10" y="1026.87" width="230" height="95" as="geometry" />
        </mxCell>
        <UserObject label="&lt;a href=&quot;https://docs.microsoft.com/en-us/dotnet/csharp/language-reference/operators/lambda-expressions&quot;&gt;Arrow Functions&lt;/a&gt;" link="https://docs.microsoft.com/en-us/dotnet/csharp/language-reference/operators/lambda-expressions" linkTarget="_blank" id="TVtdVuU6rrKW41aySdb2-13">
          <mxCell style="rounded=1;whiteSpace=wrap;html=1;fillColor=#dae8fc;strokeColor=#6c8ebf;strokeWidth=2;fontSize=14;" parent="TVtdVuU6rrKW41aySdb2-12" vertex="1">
            <mxGeometry x="120" y="40" width="100" height="40" as="geometry" />
          </mxCell>
        </UserObject>
        <UserObject label="&lt;a href=&quot;https://docs.microsoft.com/en-us/dotnet/csharp/language-reference/operators/lambda-operator&quot;&gt;&quot;=&amp;gt;&quot; Operator&lt;/a&gt;" link="https://docs.microsoft.com/en-us/dotnet/csharp/language-reference/operators/lambda-operator" linkTarget="_blank" id="TVtdVuU6rrKW41aySdb2-14">
          <mxCell style="rounded=1;whiteSpace=wrap;html=1;fillColor=#dae8fc;strokeColor=#6c8ebf;strokeWidth=2;fontSize=14;" parent="TVtdVuU6rrKW41aySdb2-12" vertex="1">
            <mxGeometry x="10" y="40" width="100" height="40" as="geometry" />
          </mxCell>
        </UserObject>
        <UserObject label="Asynchronous &#xa;Programming" link="https://docs.microsoft.com/en-us/dotnet/csharp/programming-guide/concepts/async/" id="TVtdVuU6rrKW41aySdb2-16">
          <mxCell style="swimlane;rounded=1;fontSize=14;strokeWidth=2;startSize=40;" parent="1" vertex="1">
            <mxGeometry x="10" y="1136.87" width="230" height="173.13" as="geometry" />
          </mxCell>
        </UserObject>
        <UserObject label="&lt;a href=&quot;https://docs.microsoft.com/en-us/dotnet/csharp/programming-guide/concepts/async/&quot;&gt;Tasks&lt;/a&gt;" link="https://docs.microsoft.com/en-us/dotnet/csharp/programming-guide/concepts/async/" linkTarget="_blank" id="TVtdVuU6rrKW41aySdb2-17">
          <mxCell style="rounded=1;whiteSpace=wrap;html=1;fillColor=#dae8fc;strokeColor=#6c8ebf;strokeWidth=2;fontSize=14;" parent="TVtdVuU6rrKW41aySdb2-16" vertex="1">
            <mxGeometry x="120" y="60" width="100" height="40" as="geometry" />
          </mxCell>
        </UserObject>
        <UserObject label="&lt;a href=&quot;https://docs.microsoft.com/en-us/dotnet/csharp/language-reference/keywords/async&quot;&gt;Async&lt;/a&gt;&lt;a href=&quot;https://docs.microsoft.com/en-us/dotnet/csharp/language-reference/operators/await&quot;&gt;&lt;/a&gt;" link="https://docs.microsoft.com/en-us/dotnet/csharp/language-reference/keywords/async" linkTarget="_blank" id="TVtdVuU6rrKW41aySdb2-18">
          <mxCell style="rounded=1;whiteSpace=wrap;html=1;fillColor=#dae8fc;strokeColor=#6c8ebf;strokeWidth=2;fontSize=14;" parent="TVtdVuU6rrKW41aySdb2-16" vertex="1">
            <mxGeometry x="10" y="115" width="100" height="40" as="geometry" />
          </mxCell>
        </UserObject>
        <UserObject label="&lt;a href=&quot;https://docs.microsoft.com/en-us/dotnet/csharp/language-reference/operators/await&quot;&gt;Await&lt;/a&gt;" link="https://docs.microsoft.com/en-us/dotnet/csharp/language-reference/operators/await" linkTarget="_blank" id="lwvj8f8YE6O9QnCj63W--49">
          <mxCell style="rounded=1;whiteSpace=wrap;html=1;fillColor=#dae8fc;strokeColor=#6c8ebf;strokeWidth=2;fontSize=14;" parent="TVtdVuU6rrKW41aySdb2-16" vertex="1">
            <mxGeometry x="120" y="115" width="100" height="40" as="geometry" />
          </mxCell>
        </UserObject>
        <UserObject label="&lt;a href=&quot;https://docs.microsoft.com/en-us/dotnet/standard/threading/using-threads-and-threading&quot;&gt;Threads&lt;/a&gt;" link="https://docs.microsoft.com/en-us/dotnet/standard/threading/using-threads-and-threading" linkTarget="_blank" id="lwvj8f8YE6O9QnCj63W--50">
          <mxCell style="rounded=1;whiteSpace=wrap;html=1;fillColor=#dae8fc;strokeColor=#6c8ebf;strokeWidth=2;fontSize=14;" parent="TVtdVuU6rrKW41aySdb2-16" vertex="1">
            <mxGeometry x="10" y="60" width="100" height="40" as="geometry" />
          </mxCell>
        </UserObject>
        <UserObject label="&lt;a href=&quot;https://docs.microsoft.com/en-us/dotnet/csharp/programming-guide/concepts/serialization/&quot;&gt;Serialization&lt;/a&gt;" link="https://docs.microsoft.com/en-us/dotnet/csharp/programming-guide/concepts/serialization/" linkTarget="_blank" id="TVtdVuU6rrKW41aySdb2-21">
          <mxCell style="rounded=1;whiteSpace=wrap;html=1;fillColor=#dae8fc;strokeColor=#6c8ebf;strokeWidth=2;fontSize=14;" parent="1" vertex="1">
            <mxGeometry x="599" y="1261.2499999999998" width="100" height="40" as="geometry" />
          </mxCell>
        </UserObject>
        <UserObject label="&lt;div&gt;&lt;a href=&quot;https://docs.microsoft.com/en-us/dotnet/csharp/programming-guide/classes-and-structs/extension-methods&quot;&gt;Extension Methods&lt;/a&gt;&lt;/div&gt;" link="https://docs.microsoft.com/en-us/dotnet/csharp/programming-guide/classes-and-structs/extension-methods" linkTarget="_blank" id="TVtdVuU6rrKW41aySdb2-22">
          <mxCell style="rounded=1;whiteSpace=wrap;html=1;fillColor=#dae8fc;strokeColor=#6c8ebf;strokeWidth=2;fontSize=14;" parent="1" vertex="1">
            <mxGeometry x="599" y="1357.9999999999998" width="139" height="40" as="geometry" />
          </mxCell>
        </UserObject>
        <UserObject label="&lt;a href=&quot;https://docs.microsoft.com/en-us/dotnet/csharp/fundamentals/types/generics&quot;&gt;Generics&lt;/a&gt;" link="https://docs.microsoft.com/en-us/dotnet/csharp/fundamentals/types/generics" linkTarget="_blank" id="quayTeWEfiAioYH7ORwF-3">
          <mxCell style="rounded=1;whiteSpace=wrap;html=1;fillColor=#dae8fc;strokeColor=#6c8ebf;strokeWidth=2;fontSize=14;" parent="1" vertex="1">
            <mxGeometry x="600" y="980.31" width="80" height="40" as="geometry" />
          </mxCell>
        </UserObject>
        <UserObject label="Access Modifiers" link="https://docs.microsoft.com/en-us/dotnet/csharp/programming-guide/classes-and-structs/access-modifiers" id="lwvj8f8YE6O9QnCj63W--2">
          <mxCell style="swimlane;rounded=1;fontSize=14;strokeWidth=2;" parent="1" vertex="1">
            <mxGeometry x="10" y="710" width="230" height="150" as="geometry" />
          </mxCell>
        </UserObject>
        <UserObject label="&lt;a href=&quot;https://docs.microsoft.com/en-us/dotnet/csharp/language-reference/keywords/public&quot;&gt;Public&lt;/a&gt;" link="https://docs.microsoft.com/en-us/dotnet/csharp/language-reference/keywords/public" linkTarget="_blank" id="lwvj8f8YE6O9QnCj63W--3">
          <mxCell style="rounded=1;whiteSpace=wrap;html=1;fillColor=#dae8fc;strokeColor=#6c8ebf;strokeWidth=2;fontSize=14;" parent="lwvj8f8YE6O9QnCj63W--2" vertex="1">
            <mxGeometry x="10" y="40" width="100" height="40" as="geometry" />
          </mxCell>
        </UserObject>
        <UserObject label="&lt;a href=&quot;https://docs.microsoft.com/en-us/dotnet/csharp/language-reference/keywords/private&quot;&gt;Private&lt;/a&gt;" link="https://docs.microsoft.com/en-us/dotnet/csharp/language-reference/keywords/private" linkTarget="_blank" id="lwvj8f8YE6O9QnCj63W--4">
          <mxCell style="rounded=1;whiteSpace=wrap;html=1;fillColor=#dae8fc;strokeColor=#6c8ebf;strokeWidth=2;fontSize=14;" parent="lwvj8f8YE6O9QnCj63W--2" vertex="1">
            <mxGeometry x="120" y="40" width="100" height="40" as="geometry" />
          </mxCell>
        </UserObject>
        <UserObject label="&lt;a href=&quot;https://docs.microsoft.com/en-us/dotnet/csharp/language-reference/keywords/internal&quot;&gt;Internal&lt;/a&gt;" link="https://docs.microsoft.com/en-us/dotnet/csharp/language-reference/keywords/internal" linkTarget="_blank" id="lwvj8f8YE6O9QnCj63W--5">
          <mxCell style="rounded=1;whiteSpace=wrap;html=1;fillColor=#dae8fc;strokeColor=#6c8ebf;strokeWidth=2;fontSize=14;" parent="lwvj8f8YE6O9QnCj63W--2" vertex="1">
            <mxGeometry x="10" y="90" width="100" height="40" as="geometry" />
          </mxCell>
        </UserObject>
        <UserObject label="&lt;a href=&quot;https://docs.microsoft.com/en-us/dotnet/csharp/language-reference/keywords/protected&quot;&gt;Protected&lt;/a&gt;" link="https://docs.microsoft.com/en-us/dotnet/csharp/language-reference/keywords/protected" linkTarget="_blank" id="lwvj8f8YE6O9QnCj63W--7">
          <mxCell style="rounded=1;whiteSpace=wrap;html=1;fillColor=#dae8fc;strokeColor=#6c8ebf;strokeWidth=2;fontSize=14;" parent="lwvj8f8YE6O9QnCj63W--2" vertex="1">
            <mxGeometry x="120" y="90" width="100" height="40" as="geometry" />
          </mxCell>
        </UserObject>
        <UserObject label="Collections" link="https://docs.microsoft.com/en-us/dotnet/csharp/programming-guide/concepts/collections" id="lwvj8f8YE6O9QnCj63W--36">
          <mxCell style="swimlane;rounded=1;fontSize=14;strokeWidth=2;" parent="1" vertex="1">
            <mxGeometry x="600" y="130" width="240" height="150" as="geometry" />
          </mxCell>
        </UserObject>
        <UserObject label="&lt;a href=&quot;https://docs.microsoft.com/en-us/dotnet/csharp/programming-guide/arrays/&quot;&gt;Array&lt;/a&gt;" link="https://docs.microsoft.com/en-us/dotnet/csharp/programming-guide/arrays/" linkTarget="_blank" id="lwvj8f8YE6O9QnCj63W--37">
          <mxCell style="rounded=1;whiteSpace=wrap;html=1;fillColor=#dae8fc;strokeColor=#6c8ebf;strokeWidth=2;fontSize=14;" parent="lwvj8f8YE6O9QnCj63W--36" vertex="1">
            <mxGeometry x="15" y="90" width="100" height="40" as="geometry" />
          </mxCell>
        </UserObject>
        <UserObject label="&lt;a href=&quot;https://docs.microsoft.com/en-us/dotnet/api/system.collections.generic.list-1&quot;&gt;List&lt;/a&gt;" link="https://docs.microsoft.com/en-us/dotnet/api/system.collections.generic.list-1" linkTarget="_blank" id="lwvj8f8YE6O9QnCj63W--38">
          <mxCell style="rounded=1;whiteSpace=wrap;html=1;fillColor=#dae8fc;strokeColor=#6c8ebf;strokeWidth=2;fontSize=14;" parent="lwvj8f8YE6O9QnCj63W--36" vertex="1">
            <mxGeometry x="15" y="40" width="100" height="40" as="geometry" />
          </mxCell>
        </UserObject>
        <UserObject label="&lt;a href=&quot;https://docs.microsoft.com/en-us/dotnet/api/system.collections.generic.dictionary-2&quot;&gt;Dictionary&lt;/a&gt;" link="https://docs.microsoft.com/en-us/dotnet/api/system.collections.generic.dictionary-2" linkTarget="_blank" id="lwvj8f8YE6O9QnCj63W--39">
          <mxCell style="rounded=1;whiteSpace=wrap;html=1;fillColor=#dae8fc;strokeColor=#6c8ebf;strokeWidth=2;fontSize=14;" parent="lwvj8f8YE6O9QnCj63W--36" vertex="1">
            <mxGeometry x="125" y="40" width="100" height="40" as="geometry" />
          </mxCell>
        </UserObject>
        <UserObject label="&lt;div&gt;&lt;a href=&quot;https://learn.microsoft.com/en-us/dotnet/csharp/whats-new/csharp-12#collection-expressions&quot;&gt;Collection&lt;/a&gt;&lt;/div&gt;&lt;div&gt;&lt;a href=&quot;https://learn.microsoft.com/en-us/dotnet/csharp/whats-new/csharp-12#collection-expressions&quot;&gt;Expressions&lt;br&gt;&lt;/a&gt;&lt;/div&gt;" link="https://learn.microsoft.com/en-us/dotnet/csharp/whats-new/csharp-12#collection-expressions" linkTarget="_blank" id="DmDg42elQiaIXwM6oJwE-2">
          <mxCell style="rounded=1;whiteSpace=wrap;html=1;fillColor=#dae8fc;strokeColor=#6c8ebf;strokeWidth=2;fontSize=14;" vertex="1" parent="lwvj8f8YE6O9QnCj63W--36">
            <mxGeometry x="125" y="90" width="100" height="40" as="geometry" />
          </mxCell>
        </UserObject>
        <UserObject label="Variables and Data Types" link="https://docs.microsoft.com/en-us/dotnet/csharp/language-reference/builtin-types/built-in-types" id="lwvj8f8YE6O9QnCj63W--41">
          <mxCell style="swimlane;rounded=1;fontSize=14;strokeWidth=2;" parent="1" vertex="1">
            <mxGeometry x="11" y="180" width="230" height="200" as="geometry" />
          </mxCell>
        </UserObject>
        <UserObject label="&lt;a href=&quot;https://docs.microsoft.com/en-us/dotnet/csharp/language-reference/builtin-types/integral-numeric-types&quot;&gt;Int&lt;/a&gt;" link="https://docs.microsoft.com/en-us/dotnet/csharp/language-reference/builtin-types/integral-numeric-types" linkTarget="_blank" id="lwvj8f8YE6O9QnCj63W--14">
          <mxCell style="rounded=1;whiteSpace=wrap;html=1;fillColor=#dae8fc;strokeColor=#6c8ebf;strokeWidth=2;fontSize=14;" parent="lwvj8f8YE6O9QnCj63W--41" vertex="1">
            <mxGeometry x="120" y="40" width="100" height="40" as="geometry" />
          </mxCell>
        </UserObject>
        <UserObject label="&lt;a href=&quot;https://docs.microsoft.com/en-us/dotnet/csharp/language-reference/builtin-types/reference-types&quot;&gt;String&lt;/a&gt;" link="https://docs.microsoft.com/en-us/dotnet/csharp/language-reference/builtin-types/reference-types" linkTarget="_blank" id="lwvj8f8YE6O9QnCj63W--15">
          <mxCell style="rounded=1;whiteSpace=wrap;html=1;fillColor=#dae8fc;strokeColor=#6c8ebf;strokeWidth=2;fontSize=14;" parent="lwvj8f8YE6O9QnCj63W--41" vertex="1">
            <mxGeometry x="10" y="40" width="100" height="40" as="geometry" />
          </mxCell>
        </UserObject>
        <UserObject label="&lt;div&gt;&lt;a href=&quot;https://docs.microsoft.com/en-us/dotnet/csharp/language-reference/builtin-types/floating-point-numeric-types&quot;&gt;Float/Double&lt;/a&gt;&lt;/div&gt;&lt;div&gt;&lt;a href=&quot;https://docs.microsoft.com/en-us/dotnet/csharp/language-reference/builtin-types/floating-point-numeric-types&quot;&gt;/Decimal&lt;/a&gt;&lt;/div&gt;" link="https://docs.microsoft.com/en-us/dotnet/csharp/language-reference/builtin-types/floating-point-numeric-types" linkTarget="_blank" id="lwvj8f8YE6O9QnCj63W--16">
          <mxCell style="rounded=1;whiteSpace=wrap;html=1;fillColor=#dae8fc;strokeColor=#6c8ebf;strokeWidth=2;fontSize=14;" parent="lwvj8f8YE6O9QnCj63W--41" vertex="1">
            <mxGeometry x="120" y="90" width="100" height="40" as="geometry" />
          </mxCell>
        </UserObject>
        <UserObject label="&lt;a href=&quot;https://docs.microsoft.com/en-us/dotnet/csharp/language-reference/builtin-types/bool&quot;&gt;Boolean&lt;/a&gt;" linkTarget="_blank" link="https://docs.microsoft.com/en-us/dotnet/csharp/language-reference/builtin-types/bool" id="lwvj8f8YE6O9QnCj63W--17">
          <mxCell style="rounded=1;whiteSpace=wrap;html=1;fillColor=#dae8fc;strokeColor=#6c8ebf;strokeWidth=2;fontSize=14;" parent="lwvj8f8YE6O9QnCj63W--41" vertex="1">
            <mxGeometry x="10" y="90" width="100" height="40" as="geometry" />
          </mxCell>
        </UserObject>
        <UserObject label="&lt;a href=&quot;https://docs.microsoft.com/en-us/dotnet/csharp/fundamentals/types/anonymous-types&quot;&gt;Var&lt;/a&gt;" link="https://docs.microsoft.com/en-us/dotnet/csharp/fundamentals/types/anonymous-types" linkTarget="_blank" id="lwvj8f8YE6O9QnCj63W--18">
          <mxCell style="rounded=1;whiteSpace=wrap;html=1;fillColor=#dae8fc;strokeColor=#6c8ebf;strokeWidth=2;fontSize=14;" parent="lwvj8f8YE6O9QnCj63W--41" vertex="1">
            <mxGeometry x="10" y="140" width="100" height="40" as="geometry" />
          </mxCell>
        </UserObject>
        <UserObject label="&lt;a href=&quot;https://docs.microsoft.com/en-us/dotnet/csharp/language-reference/keywords/using-directive&quot;&gt;`Using` directives&lt;/a&gt;" link="https://docs.microsoft.com/en-us/dotnet/csharp/language-reference/keywords/using-directive" linkTarget="_blank" id="lwvj8f8YE6O9QnCj63W--47">
          <mxCell style="rounded=1;whiteSpace=wrap;html=1;fillColor=#dae8fc;strokeColor=#6c8ebf;strokeWidth=2;fontSize=14;" parent="1" vertex="1">
            <mxGeometry x="599" y="390" width="131" height="40" as="geometry" />
          </mxCell>
        </UserObject>
        <mxCell id="lwvj8f8YE6O9QnCj63W--57" value="&lt;h1 align=&quot;center&quot; style=&quot;line-height: 2&quot;&gt;Move on to a .NET Roadmap&lt;br&gt;&lt;/h1&gt;&lt;div align=&quot;left&quot;&gt;&lt;blockquote&gt;&lt;p style=&quot;font-size: 14px&quot;&gt;&lt;font style=&quot;font-size: 14px&quot;&gt;Congrats! Now that you have a solid understanding of the language features of C#, the &lt;a href=&quot;https://dotnet.microsoft.com/&quot;&gt;.NET platform&lt;/a&gt; has many options for your next path:&lt;/font&gt;&lt;/p&gt;&lt;/blockquote&gt;&lt;/div&gt;&lt;blockquote&gt;&lt;p align=&quot;left&quot; style=&quot;font-size: 14px&quot;&gt;&lt;font style=&quot;font-size: 14px&quot;&gt;- Web Development: &lt;a href=&quot;https://dotnet.microsoft.com/en-us/apps/aspnet&quot;&gt;ASP.NET&lt;/a&gt;&lt;br&gt;&lt;/font&gt;&lt;/p&gt;&lt;p align=&quot;left&quot; style=&quot;font-size: 14px&quot;&gt;&lt;font style=&quot;font-size: 14px&quot;&gt;- Desktop/Mobile App Development: &lt;a href=&quot;https://avaloniaui.net/&quot;&gt;Avalonia UI&lt;/a&gt; / &lt;a href=&quot;https://dotnet.microsoft.com/en-us/apps/maui&quot;&gt;.NET Multi-platform App UI (MAUI)&lt;/a&gt;&lt;br&gt;&lt;/font&gt;&lt;/p&gt;&lt;p align=&quot;left&quot; style=&quot;font-size: 14px&quot;&gt;&lt;font style=&quot;font-size: 14px&quot;&gt;- Data Engineering: &lt;a href=&quot;https://dotnet.microsoft.com/en-us/apps/machinelearning-ai/ml-dotnet&quot;&gt;ML .NET&lt;/a&gt;&lt;br&gt;&lt;/font&gt;&lt;/p&gt;&lt;p align=&quot;left&quot; style=&quot;font-size: 14px&quot;&gt;&lt;font style=&quot;font-size: 14px&quot;&gt;- Game Development: &lt;a href=&quot;https://dotnet.microsoft.com/en-us/apps/games/unity&quot;&gt;Unity&lt;/a&gt;, &lt;a href=&quot;https://godotengine.org/&quot;&gt;Godot&lt;/a&gt;, &lt;a href=&quot;https://www.stride3d.net/&quot;&gt;Stride&lt;/a&gt;&lt;/font&gt;&lt;br&gt;&lt;/p&gt;&lt;/blockquote&gt;" style="text;html=1;spacing=5;spacingTop=0;whiteSpace=wrap;overflow=hidden;rounded=0;strokeColor=#CCCCCC;strokeWidth=2;glass=0;fillColor=default;align=center;" parent="1" vertex="1">
          <mxGeometry x="176.25" y="1430" width="487.5" height="310" as="geometry" />
        </mxCell>
        <mxCell id="5skpCs7WF-4Y6Zh2U24Q-5" style="edgeStyle=orthogonalEdgeStyle;rounded=1;orthogonalLoop=1;jettySize=auto;html=1;entryX=0;entryY=0.5;entryDx=0;entryDy=0;endArrow=none;endFill=0;strokeWidth=2;" parent="1" source="TVtdVuU6rrKW41aySdb2-2" target="5skpCs7WF-4Y6Zh2U24Q-13" edge="1">
          <mxGeometry relative="1" as="geometry">
            <mxPoint x="531" y="1137.5" as="sourcePoint" />
            <mxPoint x="601" y="1156.87" as="targetPoint" />
          </mxGeometry>
        </mxCell>
        <mxCell id="5skpCs7WF-4Y6Zh2U24Q-6" value="Member Modifiers" style="swimlane;rounded=1;fontSize=14;strokeWidth=2;startSize=23;" parent="1" vertex="1">
          <mxGeometry x="599" y="1033.75" width="230" height="166.25" as="geometry" />
        </mxCell>
        <UserObject label="&lt;a href=&quot;https://docs.microsoft.com/en-us/dotnet/csharp/language-reference/keywords/const&quot;&gt;Const&lt;/a&gt;" link="https://docs.microsoft.com/en-us/dotnet/csharp/language-reference/keywords/const" linkTarget="_blank" id="5skpCs7WF-4Y6Zh2U24Q-7">
          <mxCell style="rounded=1;whiteSpace=wrap;html=1;fillColor=#dae8fc;strokeColor=#6c8ebf;strokeWidth=2;fontSize=14;" parent="5skpCs7WF-4Y6Zh2U24Q-6" vertex="1">
            <mxGeometry x="10" y="96.25" width="100" height="40" as="geometry" />
          </mxCell>
        </UserObject>
        <UserObject label="&lt;a href=&quot;https://learn.microsoft.com/en-us/dotnet/csharp/language-reference/keywords/init&quot;&gt;Init&lt;/a&gt;" linkTarget="_blank" link="https://learn.microsoft.com/en-us/dotnet/csharp/language-reference/keywords/init" id="DmDg42elQiaIXwM6oJwE-8">
          <mxCell style="rounded=1;whiteSpace=wrap;html=1;fillColor=#dae8fc;strokeColor=#6c8ebf;strokeWidth=2;fontSize=14;" vertex="1" parent="5skpCs7WF-4Y6Zh2U24Q-6">
            <mxGeometry x="120" y="40" width="100" height="40" as="geometry" />
          </mxCell>
        </UserObject>
        <UserObject label="&lt;a href=&quot;https://learn.microsoft.com/en-us/dotnet/csharp/language-reference/keywords/required&quot;&gt;Required&lt;/a&gt;" linkTarget="_blank" link="https://learn.microsoft.com/en-us/dotnet/csharp/language-reference/keywords/required" id="DmDg42elQiaIXwM6oJwE-9">
          <mxCell style="rounded=1;whiteSpace=wrap;html=1;fillColor=#dae8fc;strokeColor=#6c8ebf;strokeWidth=2;fontSize=14;" vertex="1" parent="5skpCs7WF-4Y6Zh2U24Q-6">
            <mxGeometry x="10" y="40" width="100" height="40" as="geometry" />
          </mxCell>
        </UserObject>
        <UserObject label="&lt;a href=&quot;https://docs.microsoft.com/en-us/dotnet/csharp/language-reference/keywords/readonly&quot;&gt;Readonly&lt;/a&gt;" link="https://docs.microsoft.com/en-us/dotnet/csharp/language-reference/keywords/readonly" linkTarget="_blank" id="5skpCs7WF-4Y6Zh2U24Q-8">
          <mxCell style="rounded=1;whiteSpace=wrap;html=1;fillColor=#dae8fc;strokeColor=#6c8ebf;strokeWidth=2;fontSize=14;" parent="5skpCs7WF-4Y6Zh2U24Q-6" vertex="1">
            <mxGeometry x="120" y="96.25" width="100" height="40" as="geometry" />
          </mxCell>
        </UserObject>
        <mxCell id="5skpCs7WF-4Y6Zh2U24Q-9" style="edgeStyle=orthogonalEdgeStyle;rounded=1;orthogonalLoop=1;jettySize=auto;html=1;entryX=0;entryY=0.5;entryDx=0;entryDy=0;endArrow=none;endFill=0;strokeWidth=2;" parent="1" source="TVtdVuU6rrKW41aySdb2-2" target="5skpCs7WF-4Y6Zh2U24Q-6" edge="1">
          <mxGeometry relative="1" as="geometry">
            <mxPoint x="531" y="1137.5142857142857" as="sourcePoint" />
            <mxPoint x="611" y="1288.1200000000001" as="targetPoint" />
          </mxGeometry>
        </mxCell>
        <mxCell id="5skpCs7WF-4Y6Zh2U24Q-10" style="edgeStyle=orthogonalEdgeStyle;rounded=1;orthogonalLoop=1;jettySize=auto;html=1;endArrow=none;endFill=0;strokeWidth=2;entryX=1;entryY=0.5;entryDx=0;entryDy=0;" parent="1" source="TVtdVuU6rrKW41aySdb2-2" target="5skpCs7WF-4Y6Zh2U24Q-12" edge="1">
          <mxGeometry relative="1" as="geometry">
            <mxPoint x="331" y="1137.5294117647059" as="sourcePoint" />
            <mxPoint x="240" y="1360" as="targetPoint" />
          </mxGeometry>
        </mxCell>
        <UserObject label="&lt;div style=&quot;font-size: 14px&quot;&gt;&lt;a href=&quot;https://docs.microsoft.com/en-us/dotnet/csharp/fundamentals/exceptions/exception-handling&quot;&gt;Exception Handling&lt;/a&gt;&lt;br style=&quot;font-size: 14px&quot;&gt;&lt;/div&gt;" link="https://docs.microsoft.com/en-us/dotnet/csharp/fundamentals/exceptions/exception-handling" linkTarget="_blank" id="5skpCs7WF-4Y6Zh2U24Q-12">
          <mxCell style="rounded=1;whiteSpace=wrap;html=1;fillColor=#dae8fc;strokeColor=#6c8ebf;strokeWidth=2;fontSize=14;" parent="1" vertex="1">
            <mxGeometry x="99" y="1321.87" width="141" height="40" as="geometry" />
          </mxCell>
        </UserObject>
        <UserObject label="&lt;a href=&quot;https://docs.microsoft.com/en-us/dotnet/csharp/language-reference/keywords/static&quot;&gt;Static&lt;/a&gt;" link="https://docs.microsoft.com/en-us/dotnet/csharp/language-reference/keywords/static" linkTarget="_blank" id="5skpCs7WF-4Y6Zh2U24Q-13">
          <mxCell style="rounded=1;whiteSpace=wrap;html=1;fillColor=#dae8fc;strokeColor=#6c8ebf;strokeWidth=2;fontSize=14;" parent="1" vertex="1">
            <mxGeometry x="600" y="1210" width="60" height="40" as="geometry" />
          </mxCell>
        </UserObject>
        <UserObject label="&lt;a href=&quot;https://docs.microsoft.com/en-us/dotnet/csharp/language-reference/builtin-types/enum&quot;&gt;Enums&lt;/a&gt;" link="https://docs.microsoft.com/en-us/dotnet/csharp/language-reference/builtin-types/enum" linkTarget="_blank" id="5skpCs7WF-4Y6Zh2U24Q-16">
          <mxCell style="rounded=1;whiteSpace=wrap;html=1;fillColor=#dae8fc;strokeColor=#6c8ebf;strokeWidth=2;fontSize=14;" parent="1" vertex="1">
            <mxGeometry x="171" y="930" width="69" height="40" as="geometry" />
          </mxCell>
        </UserObject>
        <mxCell id="5skpCs7WF-4Y6Zh2U24Q-17" style="edgeStyle=orthogonalEdgeStyle;rounded=1;orthogonalLoop=1;jettySize=auto;html=1;fontSize=24;endArrow=none;endFill=0;strokeWidth=2;entryX=1;entryY=0.5;entryDx=0;entryDy=0;" parent="1" source="TVtdVuU6rrKW41aySdb2-2" target="5skpCs7WF-4Y6Zh2U24Q-16" edge="1">
          <mxGeometry relative="1" as="geometry">
            <mxPoint x="331" y="1137.5" as="sourcePoint" />
            <mxPoint x="250" y="1006.8699999999999" as="targetPoint" />
          </mxGeometry>
        </mxCell>
        <mxCell id="DmDg42elQiaIXwM6oJwE-3" style="edgeStyle=orthogonalEdgeStyle;rounded=1;orthogonalLoop=1;jettySize=auto;html=1;exitX=1;exitY=0.5;exitDx=0;exitDy=0;entryX=0;entryY=0.5;entryDx=0;entryDy=0;fontSize=24;endArrow=none;endFill=0;strokeWidth=2;" edge="1" target="DmDg42elQiaIXwM6oJwE-4" parent="1" source="TVtdVuU6rrKW41aySdb2-2">
          <mxGeometry relative="1" as="geometry">
            <mxPoint x="521" y="1180" as="sourcePoint" />
          </mxGeometry>
        </mxCell>
        <UserObject label="&lt;a href=&quot;https://learn.microsoft.com/en-us/dotnet/csharp/language-reference/tokens/raw-string&quot;&gt;Raw String Literals&lt;/a&gt;" linkTarget="_blank" link="https://learn.microsoft.com/en-us/dotnet/csharp/language-reference/tokens/raw-string" id="DmDg42elQiaIXwM6oJwE-4">
          <mxCell style="rounded=1;whiteSpace=wrap;html=1;fillColor=#dae8fc;strokeColor=#6c8ebf;strokeWidth=2;fontSize=14;" vertex="1" parent="1">
            <mxGeometry x="600" y="1309.9999999999998" width="139" height="40" as="geometry" />
          </mxCell>
        </UserObject>
        <mxCell id="DmDg42elQiaIXwM6oJwE-15" value="" style="shape=image;verticalLabelPosition=bottom;labelBackgroundColor=default;verticalAlign=top;aspect=fixed;imageAspect=0;image=data:image/svg+xml,PHN2ZyB2ZXJzaW9uPSIxLjEiIGZpbGw9Im5vbmUiIHN0eWxlPSItd2Via2l0LXByaW50LWNvbG9yLWFkanVzdDogZXhhY3Q7IiB2aWV3Qm94PSItMzIgLTMyIDIzOCAyNTQuNTA3IiBpZD0ic2NyZWVuc2hvdC04MGEyMWFmMS0zYjFlLTgwMTYtODAwMy0wMWU4M2U5MDExMWEiIGhlaWdodD0iMjU0LjUwNyIgeG1sbnM9Imh0dHA6Ly93d3cudzMub3JnLzIwMDAvc3ZnIiB3aWR0aD0iMjM4IiB4bWxuczp4bGluaz0iaHR0cDovL3d3dy53My5vcmcvMTk5OS94bGluayI+PGcgc3R5bGU9ImZpbGw6IHJnYigwLCAwLCAwKTsiIGZpbHRlcj0idXJsKCNmaWx0ZXJfcnVtZXh0LWlkLTEpIiByeT0iMCIgcng9IjAiIGNsaXAtcGF0aD0idXJsKCNydW1leHQtaWQtMS1jbGlwMCkiIGlkPSJzaGFwZS04MGEyMWFmMS0zYjFlLTgwMTYtODAwMy0wMWU4M2U5MDExMWEiPjxkZWZzPjxjbGlwUGF0aCB0cmFuc2Zvcm09Im1hdHJpeCg1LjM3NTYyOCwgMC4wMDAwMDAsIDAuMDAwMDAwLCAzLjk0NTc2MCwgLTYxLjkwMDUyMCwgLTE4LjQxNjk1OCkiIGNsYXNzPSJzdmctZGVmIiBpZD0icnVtZXh0LWlkLTEtY2xpcDAiPjxyZWN0IGZpbGw9IndoaXRlIiBoZWlnaHQ9IjQ4IiB3aWR0aD0iNDgiLz48L2NsaXBQYXRoPjxmaWx0ZXIgY29sb3ItaW50ZXJwb2xhdGlvbi1maWx0ZXJzPSJzUkdCIiBmaWx0ZXJVbml0cz0ib2JqZWN0Qm91bmRpbmdCb3giIGhlaWdodD0iMS4zOTYzODA1OTc2Mjk0ODk0IiB3aWR0aD0iMS40NCIgeT0iLTAuMTYyMTU1Njk5MDMwMjQ1NjgiIHg9Ii0wLjE4IiBpZD0iZmlsdGVyX3J1bWV4dC1pZC0xIj48ZmVGbG9vZCByZXN1bHQ9IkJhY2tncm91bmRJbWFnZUZpeCIgZmxvb2Qtb3BhY2l0eT0iMCIvPjxmZUNvbG9yTWF0cml4IHZhbHVlcz0iMCAwIDAgMCAwIDAgMCAwIDAgMCAwIDAgMCAwIDAgMCAwIDAgMTI3IDAiIHR5cGU9Im1hdHJpeCIgaW49IlNvdXJjZUFscGhhIi8+PGZlT2Zmc2V0IGR5PSI0IiBkeD0iNCIvPjxmZUdhdXNzaWFuQmx1ciBzdGREZXZpYXRpb249IjIiLz48ZmVDb2xvck1hdHJpeCB2YWx1ZXM9IjAgMCAwIDAgMCAwIDAgMCAwIDAgMCAwIDAgMCAwIDAgMCAwIDAuMiAwIiB0eXBlPSJtYXRyaXgiLz48ZmVCbGVuZCByZXN1bHQ9ImZpbHRlcl84MGEyMWFmMS0zYjFlLTgwMTYtODAwMy0wMWViODdiNjNmMjQiIGluMj0iQmFja2dyb3VuZEltYWdlRml4IiBtb2RlPSJub3JtYWwiLz48ZmVCbGVuZCByZXN1bHQ9InNoYXBlIiBpbjI9ImZpbHRlcl84MGEyMWFmMS0zYjFlLTgwMTYtODAwMy0wMWViODdiNjNmMjQiIGluPSJTb3VyY2VHcmFwaGljIiBtb2RlPSJub3JtYWwiLz48L2ZpbHRlcj48ZmlsdGVyIGNvbG9yLWludGVycG9sYXRpb24tZmlsdGVycz0ic1JHQiIgZmlsdGVyVW5pdHM9Im9iamVjdEJvdW5kaW5nQm94IiBoZWlnaHQ9IjEuMzk2MzgwNTk3NjI5NDg5NCIgd2lkdGg9IjEuNDQiIHk9Ii0wLjE2MjE1NTY5OTAzMDI0NTY4IiB4PSItMC4xOCIgaWQ9ImZpbHRlcl9zaGFkb3dfcnVtZXh0LWlkLTEiPjxmZUZsb29kIHJlc3VsdD0iQmFja2dyb3VuZEltYWdlRml4IiBmbG9vZC1vcGFjaXR5PSIwIi8+PGZlQ29sb3JNYXRyaXggdmFsdWVzPSIwIDAgMCAwIDAgMCAwIDAgMCAwIDAgMCAwIDAgMCAwIDAgMCAxMjcgMCIgdHlwZT0ibWF0cml4IiBpbj0iU291cmNlQWxwaGEiLz48ZmVPZmZzZXQgZHk9IjQiIGR4PSI0Ii8+PGZlR2F1c3NpYW5CbHVyIHN0ZERldmlhdGlvbj0iMiIvPjxmZUNvbG9yTWF0cml4IHZhbHVlcz0iMCAwIDAgMCAwIDAgMCAwIDAgMCAwIDAgMCAwIDAgMCAwIDAgMC4yIDAiIHR5cGU9Im1hdHJpeCIvPjxmZUJsZW5kIHJlc3VsdD0iZmlsdGVyXzgwYTIxYWYxLTNiMWUtODAxNi04MDAzLTAxZWI4N2I2M2YyNCIgaW4yPSJCYWNrZ3JvdW5kSW1hZ2VGaXgiIG1vZGU9Im5vcm1hbCIvPjxmZUJsZW5kIHJlc3VsdD0ic2hhcGUiIGluMj0iZmlsdGVyXzgwYTIxYWYxLTNiMWUtODAxNi04MDAzLTAxZWI4N2I2M2YyNCIgaW49IlNvdXJjZUdyYXBoaWMiIG1vZGU9Im5vcm1hbCIvPjwvZmlsdGVyPjwvZGVmcz48ZyBpZD0ic2hhcGUtODBhMjFhZjEtM2IxZS04MDE2LTgwMDMtMDFlODNlOTBiZDZjIj48ZyBpZD0iZmlsbHMtODBhMjFhZjEtM2IxZS04MDE2LTgwMDMtMDFlODNlOTBiZDZjIiBjbGFzcz0iZmlsbHMiPjxwYXRoIHN0eWxlPSJmaWxsOiByZ2IoOTcsIDcsIDE1Mik7IiBkPSJNNjQuMTc1LDIuOTAxQzcwLjg3MywtMC45NjcsNzkuMTI3LC0wLjk2Nyw4NS44MjUsMi45MDFMMTM5LjE3NSwzMy43MDJDMTQ1Ljg3MywzNy41NzAsMTUwLjAwMCw0NC43MTcsMTUwLjAwMCw1Mi40NTJMMTUwLjAwMCwxMTQuMDU1QzE1MC4wMDAsMTIxLjc5MCwxNDUuODczLDEyOC45MzcsMTM5LjE3NSwxMzIuODA1TDg1LjgyNSwxNjMuNjA2Qzc5LjEyNywxNjcuNDc0LDcwLjg3MywxNjcuNDc0LDY0LjE3NSwxNjMuNjA2TDEwLjgyNSwxMzIuODA1QzQuMTI3LDEyOC45MzcsMC4wMDAsMTIxLjc5MCwwLjAwMCwxMTQuMDU1TDAuMDAwLDUyLjQ1MkMwLjAwMCw0NC43MTcsNC4xMjcsMzcuNTcwLDEwLjgyNSwzMy43MDJMNjQuMTc1LDIuOTAxWloiIHJ5PSIwIiByeD0iMCIvPjwvZz48L2c+PGcgc3R5bGU9ImZpbGw6IHJnYigwLCAwLCAwKTsiIHJ5PSIwIiByeD0iMCIgbWFzaz0idXJsKCNydW1leHQtaWQtMy1tYXNrMCkiIGlkPSJzaGFwZS04MGEyMWFmMS0zYjFlLTgwMTYtODAwMy0wMWU4M2U5MTI4YmQiPjxkZWZzPjxtYXNrIGRhdGEtb2xkLWhlaWdodD0iMTQ3Ljk0NjExMTA1MDAzNDc3IiB5PSItMjMuNDMxODEzMzIxMzU2NDU4IiBkYXRhLW9sZC14PSItMzQuOTQ3MDcyNTc5NDc1MzA0IiBkYXRhLW9sZC13aWR0aD0iMTg0LjAzMDUyODM3OTMxMTYiIGRhdGEtb2xkLXk9Ii0yMy40MzE4MTMzMjEzNTY0NTgiIHN0eWxlPSJtYXNrLXR5cGU6IGFscGhhOyIgaWQ9InJ1bWV4dC1pZC0zLW1hc2swIiB4PSItMzQuOTQ3MDcyNTc5NDc1MzA0IiBjbGFzcz0ic3ZnLWRlZiIgaGVpZ2h0PSIxNDcuOTQ2MTExMDUwMDM0NzciIG1hc2tVbml0cz0idXNlclNwYWNlT25Vc2UiIHdpZHRoPSIxODQuMDMwNTI4Mzc5MzExNiI+PGcgdHJhbnNmb3JtPSJtYXRyaXgoMy42MDg0NDIsIDAuMDAwMDAwLCAwLjAwMDAwMCwgMy42MDg0NDIsIC0xMy4yOTY0MjIsIC01LjM4OTYwNSkiIGNsYXNzPSJzdmctbWFzay13cmFwcGVyIj48cmVjdCBmaWxsPSIjQzRDNEM0IiB0cmFuc2Zvcm09InJvdGF0ZSgtMzAgLTYgMTguMTU2MikiIGhlaWdodD0iMjAuMDg4NiIgd2lkdGg9IjQ2LjMxMjMiIHk9IjE4LjE1NjIiIHg9Ii02Ii8+PC9nPjwvbWFzaz48L2RlZnM+PGcgaWQ9InNoYXBlLTgwYTIxYWYxLTNiMWUtODAxNi04MDAzLTAxZTgzZTkxN2YxZiI+PGcgaWQ9ImZpbGxzLTgwYTIxYWYxLTNiMWUtODAxNi04MDAzLTAxZTgzZTkxN2YxZiIgY2xhc3M9ImZpbGxzIj48cGF0aCBzdHlsZT0iZmlsbDogcmdiKDE1MCwgNjYsIDIwMik7IiBkPSJNNjQuMTc1LDIuOTAxQzcwLjg3MywtMC45NjcsNzkuMTI3LC0wLjk2Nyw4NS44MjUsMi45MDFMMTM5LjE3NSwzMy43MDJDMTQ1Ljg3MywzNy41NzAsMTUwLjAwMCw0NC43MTcsMTUwLjAwMCw1Mi40NTJMMTUwLjAwMCwxMTQuMDU1QzE1MC4wMDAsMTIxLjc5MCwxNDUuODczLDEyOC45MzcsMTM5LjE3NSwxMzIuODA1TDg1LjgyNSwxNjMuNjA2Qzc5LjEyNywxNjcuNDc0LDcwLjg3MywxNjcuNDc0LDY0LjE3NSwxNjMuNjA2TDEwLjgyNSwxMzIuODA1QzQuMTI3LDEyOC45MzcsMC4wMDAsMTIxLjc5MCwwLjAwMCwxMTQuMDU1TDAuMDAwLDUyLjQ1MkMwLjAwMCw0NC43MTcsNC4xMjcsMzcuNTcwLDEwLjgyNSwzMy43MDJMNjQuMTc1LDIuOTAxWloiIHJ5PSIwIiByeD0iMCIvPjwvZz48L2c+PC9nPjxnIGlkPSJzaGFwZS04MGEyMWFmMS0zYjFlLTgwMTYtODAwMy0wMWU4M2U5MWVkNWQiPjxnIGlkPSJmaWxscy04MGEyMWFmMS0zYjFlLTgwMTYtODAwMy0wMWU4M2U5MWVkNWQiIGNsYXNzPSJmaWxscyI+PHBhdGggc3R5bGU9ImZpbGw6IHJnYigyNTUsIDI1NSwgMjU1KTsiIGQ9Ik0xMjEuOTEwLDgxLjQ0OUMxMjEuOTEwLDEwOC4zNTMsMTAwLjEwMCwxMzAuMTYzLDczLjE5NiwxMzAuMTYzQzQ2LjI5MiwxMzAuMTYzLDI0LjQ4MiwxMDguMzUzLDI0LjQ4Miw4MS40NDlDMjQuNDgyLDU0LjU0NSw0Ni4yOTIsMzIuNzM1LDczLjE5NiwzMi43MzVDMTAwLjEwMCwzMi43MzUsMTIxLjkxMCw1NC41NDUsMTIxLjkxMCw4MS40NDlaWk00OC41MDEsODEuNDQ5QzQ4LjUwMSw5NS4wODcsNTkuNTU3LDEwNi4xNDQsNzMuMTk2LDEwNi4xNDRDODYuODM0LDEwNi4xNDQsOTcuODkwLDk1LjA4Nyw5Ny44OTAsODEuNDQ5Qzk3Ljg5MCw2Ny44MTEsODYuODM0LDU2Ljc1NSw3My4xOTYsNTYuNzU1QzU5LjU1Nyw1Ni43NTUsNDguNTAxLDY3LjgxMSw0OC41MDEsODEuNDQ5WloiIHJ5PSIwIiByeD0iMCIvPjwvZz48L2c+PGcgc3R5bGU9ImZpbGw6IHJnYigwLCAwLCAwKTsiIHJ5PSIwIiByeD0iMCIgbWFzaz0idXJsKCNydW1leHQtaWQtNi1tYXNrMSkiIGlkPSJzaGFwZS04MGEyMWFmMS0zYjFlLTgwMTYtODAwMy0wMWU4M2U5MjFiMzIiPjxkZWZzPjxtYXNrIGRhdGEtb2xkLWhlaWdodD0iMTIyLjY4NzAxODkxOTU0MTAyIiB5PSI5LjA0NDE2MjI3NDk5MjYzOCIgZGF0YS1vbGQteD0iNjkuNjk3NzM3Njc1NDI3MzgiIGRhdGEtb2xkLXdpZHRoPSIxMjYuMjk1NDYwNjUyNDY4NzUiIGRhdGEtb2xkLXk9IjkuMDQ0MTYyMjc0OTkyNjM4IiBzdHlsZT0ibWFzay10eXBlOiBhbHBoYTsiIGlkPSJydW1leHQtaWQtNi1tYXNrMSIgeD0iNjkuNjk3NzM3Njc1NDI3MzgiIGNsYXNzPSJzdmctZGVmIiBoZWlnaHQ9IjEyMi42ODcwMTg5MTk1NDEwMiIgbWFza1VuaXRzPSJ1c2VyU3BhY2VPblVzZSIgd2lkdGg9IjEyNi4yOTU0NjA2NTI0Njg3NSI+PGcgdHJhbnNmb3JtPSJtYXRyaXgoMy42MDg0NDIsIDAuMDAwMDAwLCAwLjAwMDAwMCwgMy42MDg0NDIsIC0xMy4yOTY0MjIsIC01LjM4OTYwNSkiIGNsYXNzPSJzdmctbWFzay13cmFwcGVyIj48cGF0aCBmaWxsPSIjQzRDNEM0IiBkPSJNNDYuNDU5OCAxMS4wNjU0TDQ2LjQ1OTggMzcuMDQ2MkwyMy45NTk4IDI0LjA1NThMNDYuNDU5OCAxMS4wNjU0WiIvPjwvZz48L21hc2s+PC9kZWZzPjxnIGlkPSJzaGFwZS04MGEyMWFmMS0zYjFlLTgwMTYtODAwMy0wMWU4M2U5MjU2Y2YiPjxnIGlkPSJmaWxscy04MGEyMWFmMS0zYjFlLTgwMTYtODAwMy0wMWU4M2U5MjU2Y2YiIGNsYXNzPSJmaWxscyI+PHBhdGggc3R5bGU9ImZpbGw6IHJnYigxMjAsIDM3LCAxNzEpOyIgZD0iTTY0LjE3NSwyLjkwMUM3MC44NzMsLTAuOTY3LDc5LjEyNywtMC45NjcsODUuODI1LDIuOTAxTDEzOS4xNzUsMzMuNzAyQzE0NS44NzMsMzcuNTcwLDE1MC4wMDAsNDQuNzE3LDE1MC4wMDAsNTIuNDUyTDE1MC4wMDAsMTE0LjA1NUMxNTAuMDAwLDEyMS43OTAsMTQ1Ljg3MywxMjguOTM3LDEzOS4xNzUsMTMyLjgwNUw4NS44MjUsMTYzLjYwNkM3OS4xMjcsMTY3LjQ3NCw3MC44NzMsMTY3LjQ3NCw2NC4xNzUsMTYzLjYwNkwxMC44MjUsMTMyLjgwNUM0LjEyNywxMjguOTM3LDAuMDAwLDEyMS43OTAsMC4wMDAsMTE0LjA1NUwwLjAwMCw1Mi40NTJDMC4wMDAsNDQuNzE3LDQuMTI3LDM3LjU3MCwxMC44MjUsMzMuNzAyTDY0LjE3NSwyLjkwMVpaIiByeT0iMCIgcng9IjAiLz48L2c+PC9nPjwvZz48ZyBpZD0ic2hhcGUtODBhMjFhZjEtM2IxZS04MDE2LTgwMDMtMDFlODNlOTM2OWYxIj48ZyBpZD0iZmlsbHMtODBhMjFhZjEtM2IxZS04MDE2LTgwMDMtMDFlODNlOTM2OWYxIiBjbGFzcz0iZmlsbHMiPjxwYXRoIHN0eWxlPSJmaWxsOiByZ2IoMjU1LCAyNTUsIDI1NSk7IiBkPSJNMTMzLjQ2OCw4OC40MjBMMTI4LjUxNyw4OC40MjBMMTI2Ljk1MSw5My44MjZDMTI2Ljg1MCw5NC4yMzAsMTI2LjU5Nyw5NC40MzIsMTI2LjE5Myw5NC40MzJMMTIzLjcxOCw5NC40MzJDMTIzLjI0Niw5NC40MzIsMTIzLjA5NSw5NC4yMzAsMTIzLjI2Myw5My44MjZMMTI0Ljc3OSw4OC40MjBMMTE4LjIxMSw4OC40MjBMMTE2LjY0NSw5My44MjZDMTE2LjU0NCw5NC4yMzAsMTE2LjI3NSw5NC40MzIsMTE1LjgzNyw5NC40MzJMMTEzLjM2Miw5NC40MzJDMTEyLjk1OCw5NC40MzIsMTEyLjgwNiw5NC4yMzAsMTEyLjkwNyw5My44MjZMMTE0LjQ3Myw4OC40MjBMMTEwLjQzMiw4OC40MjBDMTA5Ljk5NCw4OC40MjAsMTA5Ljc3NSw4OC4yMTgsMTA5Ljc3NSw4Ny44MTRMMTA5Ljc3NSw4NS45NDVDMTA5Ljc3NSw4NS41NDEsMTA5Ljk5NCw4NS4zMzksMTEwLjQzMiw4NS4zMzlMMTE1LjMzMiw4NS4zMzlMMTE3LjE1MSw3OC45NzRMMTEzLjE2MCw3OC45NzRDMTEyLjc1NSw3OC45NzQsMTEyLjU1Myw3OC43NTUsMTEyLjU1Myw3OC4zMTdMMTEyLjU1Myw3Ni40OThDMTEyLjU1Myw3Ni4wNjEsMTEyLjc1NSw3NS44NDEsMTEzLjE2MCw3NS44NDFMMTE4LjA2MCw3NS44NDFMMTE5LjY3Niw3MC4zMzVDMTE5Ljc3Nyw2OS44OTcsMTIwLjA0Nyw2OS42NzgsMTIwLjQ4NSw2OS42NzhMMTIzLjAxMSw2OS42NzhDMTIzLjM4MSw2OS42NzgsMTIzLjUxNiw2OS44OTcsMTIzLjQxNSw3MC4zMzVMMTIxLjc5OCw3NS44NDFMMTI4LjQxNiw3NS44NDFMMTMwLjAzMyw3MC4zMzVDMTMwLjEzNCw2OS44OTcsMTMwLjQwMyw2OS42NzgsMTMwLjg0MSw2OS42NzhMMTMzLjMxNiw2OS42NzhDMTMzLjc1NCw2OS42NzgsMTMzLjg4OSw2OS44OTcsMTMzLjcyMSw3MC4zMzVMMTMyLjE1NCw3NS44NDFMMTM2LjE5Niw3NS44NDFDMTM2LjYzNCw3NS44NDEsMTM2Ljg1Myw3Ni4wNjEsMTM2Ljg1Myw3Ni40OThMMTM2Ljg1Myw3OC4zMTdDMTM2Ljg1Myw3OC43NTUsMTM2LjYzNCw3OC45NzQsMTM2LjE5Niw3OC45NzRMMTMxLjI0NSw3OC45NzRMMTI5LjM3Niw4NS4zMzlMMTMzLjQ2OCw4NS4zMzlDMTMzLjg3Miw4NS4zMzksMTM0LjA3NCw4NS41NDEsMTM0LjA3NCw4NS45NDVMMTM0LjA3NCw4Ny44MTRDMTM0LjA3NCw4OC4yMTgsMTMzLjg3Miw4OC40MjAsMTMzLjQ2OCw4OC40MjBaWk0xMjUuNjM4LDg1LjMzOUwxMjcuNTA3LDc4Ljk3NEwxMjAuODg5LDc4Ljk3NEwxMTkuMDcwLDg1LjMzOUwxMjUuNjM4LDg1LjMzOVpaIiByeT0iMCIgcng9IjAiLz48L2c+PC9nPjwvZz48L3N2Zz4=;" vertex="1" parent="1">
          <mxGeometry x="374" y="20" width="102.66" height="110" as="geometry" />
        </mxCell>
        <mxCell id="DmDg42elQiaIXwM6oJwE-17" value="Note: Each roadmap item contains a link, which can be accessed by opening the SVG in a web browser." style="text;html=1;strokeColor=none;fillColor=none;align=center;verticalAlign=middle;whiteSpace=wrap;rounded=0;" vertex="1" parent="1">
          <mxGeometry x="557.5" y="10" width="281.5" height="50" as="geometry" />
        </mxCell>
      </root>
    </mxGraphModel>
  </diagram>
</mxfile>
